# xmcd
#
# Track frame offsets:
#	182
#	12125
#	21167
#	35947
#	46450
#	57152
#	70985
#	83780
#	97315
#	108912
#	124397
#	135895
#
# Disc length: 1991 seconds
#
# Revision: 0
# Processed by: cddbd v1.5.2PL0 Copyright (c) Steve Scherf et al.
# Submitted via: EZCDAudioConverter 1.3.3.1
#
DISCID=a407c50c
DTITLE=Don Gibson - Best Of  Vol. 1
DYEAR=1900
DGENRE=Country
TTITLE0=Oh Lonesome Me
TTITLE1=Blue Blue Day 
TTITLE2=I Can't Stop Loving You 
TTITLE3=Lonesome Number One 
TTITLE4=Funny, Familiar, Forgotten Feelings 
TTITLE5=Touch The Morning 
TTITLE6=Snap Your Fingers 
TTITLE7=There Goes My Everything 
TTITLE8=Sweet Sensuous Sensation 
TTITLE9=Sweet Dreams 
TTITLE10=(I'd Be) A Legend In My Time 
TTITLE11=Release Me 
EXTD=
EXTT0=
EXTT1=
EXTT2=
EXTT3=
EXTT4=
EXTT5=
EXTT6=
EXTT7=
EXTT8=
EXTT9=
EXTT10=
EXTT11=
PLAYORDER=
